<svg width="91" height="76" viewBox="0 0 91 76" fill="none" xmlns="http://www.w3.org/2000/svg">
<path d="M69.7636 60.7837C58.6066 53.6834 45.1614 51.5507 33.7678 44.8051C30.4956 42.7933 27.5389 40.3085 26.0019 37.2325C31.0483 39.4027 36.3317 40.7052 41.4974 39.8783C46.9785 39.0915 51.1199 33.651 51.6733 28.2098C52.1872 23.084 47.1805 19.5734 43.0012 18.1528C33.2628 14.5618 20.8802 20.8282 20.8775 31.0797C15.4369 27.9633 10.4697 24.1373 5.22615 20.9817C4.08295 20.3898 3.05736 21.9273 4.24007 22.7162C9.20731 26.5422 15.1601 31.1965 21.5468 34.9441C21.7437 35.4175 21.8619 36.009 22.059 36.482C28.7578 53.5965 54.4266 54.8254 68.1462 63.4642C69.7626 64.3715 71.498 61.7698 69.7636 60.7837ZM25.1765 26.9406C27.1099 21.2239 34.1289 19.9245 39.3731 20.5172C44.6172 21.11 50.1759 24.8179 48.0845 30.7713C45.6775 37.7104 38.2253 37.866 32.3504 36.1692C29.6299 35.3799 27.1855 34.4329 24.7806 33.1705C24.2687 31.1202 24.3875 29.1487 25.1765 26.9406Z" fill="#111215"/>
<path d="M77.7274 66.2663C76.7818 64.0975 75.9543 62.0075 75.1267 59.9177C74.4568 58.1037 73.8659 56.1715 72.565 54.7911C71.619 53.6474 69.2529 54.6325 69.7653 56.1702C70.4351 57.9842 71.3021 59.7588 72.051 61.4546C72.6026 62.6773 73.0756 64.0179 73.5088 65.1613C72.2471 65.0033 71.0643 64.727 69.8025 64.5689C68.8562 64.4504 67.7917 64.2529 66.8454 64.1344C66.5299 64.0949 66.1356 64.1737 65.8594 64.3312C65.189 64.5676 65.5834 64.4892 65.7805 64.4495C65.0709 64.4888 64.282 65.6715 65.1888 66.1055C65.3464 66.3816 65.5828 66.5392 65.9376 66.7759C66.9233 67.0916 68.1063 67.368 69.1707 67.5653C71.4184 68.039 73.6656 68.5126 75.9526 68.6712C77.3718 68.5928 78.2397 67.2916 77.7274 66.2663Z" fill="#111215"/>
</svg>
